<svg xmlns="http://www.w3.org/2000/svg" viewBox="0 0 350 200">
  <defs>
    <!-- Realistic Mini Rose -->
    <g id="bc-rose">
      <ellipse cx="0" cy="1.5" rx="6" ry="4.5" fill="#b54d68"/>
      <ellipse cx="0" cy="1" rx="5.5" ry="4" fill="#c25a75"/>
      <ellipse cx="-2" cy="0" rx="5" ry="3.5" fill="#d4728c" transform="rotate(-15)"/>
      <ellipse cx="2" cy="0" rx="5" ry="3.5" fill="#cf6a84" transform="rotate(15)"/>
      <ellipse cx="-1.5" cy="-1.5" rx="4" ry="3" fill="#d97a92" transform="rotate(-30)"/>
      <ellipse cx="1.5" cy="-1.5" rx="4" ry="3" fill="#d4728c" transform="rotate(30)"/>
      <ellipse cx="0" cy="-2.5" rx="3" ry="2.5" fill="#db8299"/>
      <ellipse cx="0" cy="-3.5" rx="2" ry="1.8" fill="#e596aa"/>
      <path d="M-1,-4 Q0,-5.5 1,-4 Q0.5,-3.5 0,-4 Q-0.5,-3.5 -1,-4" fill="#eba2b4"/>
      <circle cx="0" cy="-4.5" r="0.8" fill="#b54d68"/>
      <ellipse cx="1.5" cy="-1" rx="0.8" ry="1.2" fill="#f5c4d0" opacity="0.3"/>
    </g>

    <!-- Realistic Mini Wildflower -->
    <g id="bc-flower">
      <path d="M0,-6 Q-2.5,-4.5 -3.5,-2 Q-2.5,0 0,1 Q2.5,0 3.5,-2 Q2.5,-4.5 0,-6" fill="#f5e6d3" stroke="#e8d4c0" stroke-width="0.2"/>
      <path d="M0,-6 Q-2.5,-4.5 -3.5,-2 Q-2.5,0 0,1 Q2.5,0 3.5,-2 Q2.5,-4.5 0,-6" fill="#f0e0d0" transform="rotate(72)"/>
      <path d="M0,-6 Q-2.5,-4.5 -3.5,-2 Q-2.5,0 0,1 Q2.5,0 3.5,-2 Q2.5,-4.5 0,-6" fill="#f5e6d3" transform="rotate(144)"/>
      <path d="M0,-6 Q-2.5,-4.5 -3.5,-2 Q-2.5,0 0,1 Q2.5,0 3.5,-2 Q2.5,-4.5 0,-6" fill="#f0e0d0" transform="rotate(216)"/>
      <path d="M0,-6 Q-2.5,-4.5 -3.5,-2 Q-2.5,0 0,1 Q2.5,0 3.5,-2 Q2.5,-4.5 0,-6" fill="#f5e6d3" transform="rotate(288)"/>
      <circle cx="0" cy="0" r="1.8" fill="#f4d03f"/>
      <circle cx="0" cy="0" r="1.3" fill="#e6c84d"/>
      <circle cx="0" cy="-1" r="0.25" fill="#c9a227"/>
      <circle cx="0.9" cy="-0.3" r="0.25" fill="#c9a227"/>
      <circle cx="-0.9" cy="-0.3" r="0.25" fill="#c9a227"/>
    </g>

    <!-- Realistic Mini Leaf -->
    <g id="bc-leaf">
      <path d="M0,-8 Q4,-5.5 4,-1.5 Q3,1.5 0,6 Q-3,1.5 -4,-1.5 Q-4,-5.5 0,-8" fill="#4a5d3a" stroke="#3a4d2a" stroke-width="0.3"/>
      <path d="M0,-6.5 L0,4.5" stroke="#3a4d2a" stroke-width="0.4" fill="none"/>
      <path d="M0,-4.5 Q1.5,-3.5 2.5,-1.5" stroke="#3a4d2a" stroke-width="0.2" fill="none"/>
      <path d="M0,-4.5 Q-1.5,-3.5 -2.5,-1.5" stroke="#3a4d2a" stroke-width="0.2" fill="none"/>
      <path d="M0,-1 Q1.2,0 2,2" stroke="#3a4d2a" stroke-width="0.2" fill="none"/>
      <path d="M0,-1 Q-1.2,0 -2,2" stroke="#3a4d2a" stroke-width="0.2" fill="none"/>
    </g>

    <!-- Realistic Mini Bud -->
    <g id="bc-bud">
      <path d="M0,4 Q-2,2 -1.5,-1.5 Q0,-3 1.5,-1.5 Q2,2 0,4" fill="#4a5d3a" stroke="#3a4d2a" stroke-width="0.2"/>
      <path d="M-0.5,3 Q-2.5,1 -2,-0.5 Q-0.5,-1 0,0" fill="#5a6d4a" opacity="0.6"/>
      <ellipse cx="0" cy="-0.5" rx="1.5" ry="2.5" fill="#d4728c"/>
      <path d="M-0.8,-2 Q0,-3.5 0.8,-2" fill="#db8299"/>
      <ellipse cx="0" cy="-1.8" rx="0.8" ry="1.2" fill="#e596aa"/>
      <rect x="-0.4" y="3.5" width="0.8" height="4" fill="#4a5d3a"/>
    </g>

    <!-- Realistic Mini Daisy -->
    <g id="bc-daisy">
      <ellipse cx="0" cy="-3.5" rx="0.9" ry="3" fill="#ffffff" stroke="#f0f0f0" stroke-width="0.15"/>
      <ellipse cx="0" cy="-3.5" rx="0.9" ry="3" fill="#ffffff" transform="rotate(30)"/>
      <ellipse cx="0" cy="-3.5" rx="0.9" ry="3" fill="#ffffff" transform="rotate(60)"/>
      <ellipse cx="0" cy="-3.5" rx="0.9" ry="3" fill="#ffffff" transform="rotate(90)"/>
      <ellipse cx="0" cy="-3.5" rx="0.9" ry="3" fill="#ffffff" transform="rotate(120)"/>
      <ellipse cx="0" cy="-3.5" rx="0.9" ry="3" fill="#ffffff" transform="rotate(150)"/>
      <ellipse cx="0" cy="-3.5" rx="0.9" ry="3" fill="#ffffff" transform="rotate(180)"/>
      <ellipse cx="0" cy="-3.5" rx="0.9" ry="3" fill="#ffffff" transform="rotate(210)"/>
      <ellipse cx="0" cy="-3.5" rx="0.9" ry="3" fill="#ffffff" transform="rotate(240)"/>
      <ellipse cx="0" cy="-3.5" rx="0.9" ry="3" fill="#ffffff" transform="rotate(270)"/>
      <ellipse cx="0" cy="-3.5" rx="0.9" ry="3" fill="#ffffff" transform="rotate(300)"/>
      <ellipse cx="0" cy="-3.5" rx="0.9" ry="3" fill="#ffffff" transform="rotate(330)"/>
      <circle cx="0" cy="0" r="1.8" fill="#f4d03f"/>
      <circle cx="0" cy="0" r="1.3" fill="#e6b800"/>
      <circle cx="0.4" cy="-0.4" r="0.2" fill="#c9a227"/>
      <circle cx="-0.4" cy="0.4" r="0.2" fill="#c9a227"/>
    </g>

    <!-- Mini Red Rose -->
    <g id="bc-red-rose">
      <ellipse cx="0" cy="1" rx="5" ry="3.5" fill="#a03040"/>
      <ellipse cx="0" cy="0.5" rx="4.5" ry="3" fill="#b84050"/>
      <ellipse cx="-1.5" cy="-0.5" rx="4" ry="2.8" fill="#c64b4b" transform="rotate(-10)"/>
      <ellipse cx="1.5" cy="-0.5" rx="4" ry="2.8" fill="#c04545" transform="rotate(10)"/>
      <ellipse cx="0" cy="-2" rx="3" ry="2.2" fill="#d05555"/>
      <ellipse cx="0" cy="-3" rx="2" ry="1.5" fill="#e06565"/>
      <path d="M-1,-3.5 Q0,-5 1,-3.5" fill="#e87575"/>
      <circle cx="0" cy="-4" r="0.6" fill="#a03040"/>
    </g>
  </defs>

  <!-- Background -->
  <rect width="350" height="200" fill="#1a2744"/>

  <!-- Top vine -->
  <path d="M0,16 Q60,8 120,14 Q180,22 240,12 Q300,6 350,18" stroke="#4a5d3a" stroke-width="1.2" fill="none" opacity="0.8"/>
  <path d="M20,22 Q80,28 140,20 Q200,14 260,24 Q320,30 340,22" stroke="#4a5d3a" stroke-width="0.8" fill="none" opacity="0.5"/>

  <!-- Top floral arrangement -->
  <g transform="translate(22, 14) scale(0.85)">
    <use href="#bc-rose"/>
  </g>
  <g transform="translate(52, 20) scale(0.7)">
    <use href="#bc-flower"/>
  </g>
  <g transform="translate(38, 24) rotate(-25) scale(0.5)">
    <use href="#bc-leaf"/>
  </g>
  <g transform="translate(78, 12) scale(0.55)">
    <use href="#bc-daisy"/>
  </g>
  <g transform="translate(105, 18) scale(0.75)">
    <use href="#bc-red-rose"/>
  </g>
  <g transform="translate(135, 14) scale(0.65)">
    <use href="#bc-flower"/>
  </g>
  <g transform="translate(120, 24) rotate(15) scale(0.45)">
    <use href="#bc-leaf"/>
  </g>
  <g transform="translate(165, 20) scale(0.8)">
    <use href="#bc-rose"/>
  </g>
  <g transform="translate(195, 12) scale(0.6)">
    <use href="#bc-bud"/>
  </g>
  <g transform="translate(180, 24) rotate(-20) scale(0.45)">
    <use href="#bc-leaf"/>
  </g>
  <g transform="translate(220, 17) scale(0.65)">
    <use href="#bc-flower"/>
  </g>
  <g transform="translate(250, 14) scale(0.75)">
    <use href="#bc-red-rose"/>
  </g>
  <g transform="translate(235, 24) rotate(20) scale(0.5)">
    <use href="#bc-leaf"/>
  </g>
  <g transform="translate(280, 20) scale(0.55)">
    <use href="#bc-daisy"/>
  </g>
  <g transform="translate(305, 14) scale(0.65)">
    <use href="#bc-bud"/>
  </g>
  <g transform="translate(330, 16) scale(0.85)">
    <use href="#bc-rose"/>
  </g>

  <!-- Bottom vine -->
  <path d="M0,184 Q60,192 120,186 Q180,178 240,188 Q300,194 350,182" stroke="#4a5d3a" stroke-width="1.2" fill="none" opacity="0.8"/>
  <path d="M20,178 Q80,172 140,180 Q200,186 260,176 Q320,170 340,178" stroke="#4a5d3a" stroke-width="0.8" fill="none" opacity="0.5"/>

  <!-- Bottom floral arrangement -->
  <g transform="translate(22, 186) scale(0.85)">
    <use href="#bc-rose"/>
  </g>
  <g transform="translate(52, 180) scale(0.7)">
    <use href="#bc-flower"/>
  </g>
  <g transform="translate(38, 176) rotate(25) scale(0.5)">
    <use href="#bc-leaf"/>
  </g>
  <g transform="translate(78, 188) scale(0.55)">
    <use href="#bc-daisy"/>
  </g>
  <g transform="translate(105, 182) scale(0.75)">
    <use href="#bc-red-rose"/>
  </g>
  <g transform="translate(135, 186) scale(0.65)">
    <use href="#bc-flower"/>
  </g>
  <g transform="translate(120, 176) rotate(-15) scale(0.45)">
    <use href="#bc-leaf"/>
  </g>
  <g transform="translate(165, 180) scale(0.8)">
    <use href="#bc-rose"/>
  </g>
  <g transform="translate(195, 188) scale(0.6)">
    <use href="#bc-bud"/>
  </g>
  <g transform="translate(180, 176) rotate(20) scale(0.45)">
    <use href="#bc-leaf"/>
  </g>
  <g transform="translate(220, 183) scale(0.65)">
    <use href="#bc-flower"/>
  </g>
  <g transform="translate(250, 186) scale(0.75)">
    <use href="#bc-red-rose"/>
  </g>
  <g transform="translate(235, 176) rotate(-20) scale(0.5)">
    <use href="#bc-leaf"/>
  </g>
  <g transform="translate(280, 180) scale(0.55)">
    <use href="#bc-daisy"/>
  </g>
  <g transform="translate(305, 186) scale(0.65)">
    <use href="#bc-bud"/>
  </g>
  <g transform="translate(330, 184) scale(0.85)">
    <use href="#bc-rose"/>
  </g>

  <!-- Center label -->
  <rect x="75" y="55" width="200" height="90" rx="6" fill="#8fa5a4"/>
  <rect x="82" y="62" width="186" height="76" rx="4" fill="none" stroke="#ffffff" stroke-width="1" opacity="0.4"/>

  <!-- Brand name -->
  <text x="175" y="100" font-family="Georgia, serif" font-size="24" font-weight="400" fill="#ffffff" text-anchor="middle" letter-spacing="3">LIBERTY</text>
  <text x="175" y="125" font-family="Georgia, serif" font-size="16" font-style="italic" fill="#ffffff" text-anchor="middle">chérie</text>
</svg>
