<svg xmlns="http://www.w3.org/2000/svg" viewBox="0 0 800 800" width="800" height="800">
  <defs>
    <linearGradient id="bg5" x1="0%" y1="0%" x2="100%" y2="100%">
      <stop offset="0%" style="stop-color:#faf7f5"/>
      <stop offset="100%" style="stop-color:#f5ebe6"/>
    </linearGradient>
    <pattern id="daisy" patternUnits="userSpaceOnUse" width="100" height="100">
      <ellipse cx="50" cy="35" rx="8" ry="15" fill="white" opacity="0.8"/>
      <ellipse cx="65" cy="50" rx="8" ry="15" fill="white" opacity="0.8" transform="rotate(90 65 50)"/>
      <ellipse cx="50" cy="65" rx="8" ry="15" fill="white" opacity="0.8"/>
      <ellipse cx="35" cy="50" rx="8" ry="15" fill="white" opacity="0.8" transform="rotate(90 35 50)"/>
      <circle cx="50" cy="50" r="10" fill="#d4a574" opacity="0.8"/>
    </pattern>
  </defs>
  <rect width="800" height="800" fill="url(#bg5)"/>
  <ellipse cx="400" cy="380" rx="220" ry="120" fill="#c26e7a" opacity="0.35"/>
  <ellipse cx="400" cy="380" rx="200" ry="100" fill="url(#daisy)"/>
  <rect x="550" y="340" width="120" height="30" rx="15" fill="#d4a574" opacity="0.6"/>
  <rect x="550" y="380" width="120" height="30" rx="15" fill="#d4a574" opacity="0.6"/>
  <circle cx="200" cy="380" r="30" fill="#7a9e7e" opacity="0.4"/>
  <text x="400" y="580" text-anchor="middle" font-family="Georgia, serif" font-size="36" fill="#c26e7a" font-weight="500">Banane Marguerite</text>
  <text x="400" y="630" text-anchor="middle" font-family="Georgia, serif" font-size="24" fill="#7a9e7e" opacity="0.8">Liberty Cherie</text>
</svg>