<svg xmlns="http://www.w3.org/2000/svg" viewBox="0 0 800 800" width="800" height="800">
  <defs>
    <linearGradient id="bg6" x1="0%" y1="0%" x2="100%" y2="100%">
      <stop offset="0%" style="stop-color:#faf7f5"/>
      <stop offset="100%" style="stop-color:#f5ebe6"/>
    </linearGradient>
    <pattern id="hydrangea" patternUnits="userSpaceOnUse" width="80" height="80">
      <circle cx="20" cy="20" r="8" fill="#c26e7a" opacity="0.25"/>
      <circle cx="40" cy="20" r="8" fill="#c26e7a" opacity="0.2"/>
      <circle cx="60" cy="20" r="8" fill="#c26e7a" opacity="0.25"/>
      <circle cx="30" cy="40" r="8" fill="#c26e7a" opacity="0.2"/>
      <circle cx="50" cy="40" r="8" fill="#c26e7a" opacity="0.25"/>
      <circle cx="20" cy="60" r="8" fill="#c26e7a" opacity="0.25"/>
      <circle cx="40" cy="60" r="8" fill="#c26e7a" opacity="0.2"/>
      <circle cx="60" cy="60" r="8" fill="#c26e7a" opacity="0.25"/>
    </pattern>
  </defs>
  <rect width="800" height="800" fill="url(#bg6)"/>
  <path d="M280 200 Q260 200 250 220 L250 220 Q240 200 220 200" fill="none" stroke="#d4a574" stroke-width="8" opacity="0.6"/>
  <path d="M580 200 Q560 200 550 220 L550 220 Q540 200 520 200" fill="none" stroke="#d4a574" stroke-width="8" opacity="0.6"/>
  <path d="M200 250 L200 520 Q200 560 240 560 L560 560 Q600 560 600 520 L600 250 Z" fill="#7a9e7e" opacity="0.3"/>
  <path d="M220 270 L220 500 Q220 530 250 530 L550 530 Q580 530 580 500 L580 270 Z" fill="url(#hydrangea)"/>
  <ellipse cx="300" cy="400" rx="40" ry="35" fill="#c26e7a" opacity="0.3"/>
  <ellipse cx="400" cy="380" rx="50" ry="45" fill="#c26e7a" opacity="0.35"/>
  <ellipse cx="500" cy="400" rx="40" ry="35" fill="#c26e7a" opacity="0.3"/>
  <text x="400" y="640" text-anchor="middle" font-family="Georgia, serif" font-size="40" fill="#c26e7a" font-weight="500">Cabas Hortense</text>
  <text x="400" y="690" text-anchor="middle" font-family="Georgia, serif" font-size="24" fill="#7a9e7e" opacity="0.8">Liberty Cherie</text>
</svg>