<svg xmlns="http://www.w3.org/2000/svg" viewBox="0 0 800 800" width="800" height="800">
  <defs>
    <linearGradient id="bg3" x1="0%" y1="0%" x2="100%" y2="100%">
      <stop offset="0%" style="stop-color:#faf7f5"/>
      <stop offset="100%" style="stop-color:#f5ebe6"/>
    </linearGradient>
    <pattern id="floral3" patternUnits="userSpaceOnUse" width="100" height="100">
      <path d="M50 30 Q60 50 50 70 Q40 50 50 30" fill="#c26e7a" opacity="0.15"/>
      <circle cx="30" cy="50" r="8" fill="#7a9e7e" opacity="0.2"/>
      <circle cx="70" cy="50" r="8" fill="#d4a574" opacity="0.2"/>
    </pattern>
  </defs>
  <rect width="800" height="800" fill="url(#bg3)"/>
  <rect width="800" height="800" fill="url(#floral3)"/>
  <path d="M200 350 Q400 250 600 350 Q550 400 400 380 Q250 400 200 350" fill="#c26e7a" opacity="0.3"/>
  <path d="M220 360 Q400 280 580 360 Q540 400 400 385 Q260 400 220 360" fill="#d4a574" opacity="0.25"/>
  <ellipse cx="300" cy="340" rx="20" ry="15" fill="#7a9e7e" opacity="0.5"/>
  <ellipse cx="400" cy="320" rx="25" ry="18" fill="#7a9e7e" opacity="0.5"/>
  <ellipse cx="500" cy="340" rx="20" ry="15" fill="#7a9e7e" opacity="0.5"/>
  <path d="M350 380 Q400 450 450 380" fill="none" stroke="#c26e7a" stroke-width="3" opacity="0.4"/>
  <text x="400" y="580" text-anchor="middle" font-family="Georgia, serif" font-size="44" fill="#c26e7a" font-weight="500">Col Victoria</text>
  <text x="400" y="630" text-anchor="middle" font-family="Georgia, serif" font-size="24" fill="#7a9e7e" opacity="0.8">Liberty Cherie</text>
</svg>