<svg xmlns="http://www.w3.org/2000/svg" viewBox="0 0 800 800" width="800" height="800">
  <defs>
    <linearGradient id="bg7" x1="0%" y1="0%" x2="100%" y2="100%">
      <stop offset="0%" style="stop-color:#faf7f5"/>
      <stop offset="100%" style="stop-color:#f5ebe6"/>
    </linearGradient>
    <pattern id="flora-pattern" patternUnits="userSpaceOnUse" width="100" height="100">
      <path d="M50 20 Q70 40 50 60 Q30 40 50 20" fill="#7a9e7e" opacity="0.25"/>
      <path d="M30 40 Q50 60 70 40" fill="none" stroke="#7a9e7e" stroke-width="2" opacity="0.3"/>
      <circle cx="50" cy="45" r="5" fill="#c26e7a" opacity="0.3"/>
      <path d="M20 70 Q40 90 60 70" fill="none" stroke="#d4a574" stroke-width="2" opacity="0.3"/>
    </pattern>
  </defs>
  <rect width="800" height="800" fill="url(#bg7)"/>
  <rect width="800" height="800" fill="url(#flora-pattern)"/>
  <path d="M250 200 Q240 200 235 210 L235 210 Q280 180 320 210" fill="none" stroke="#d4a574" stroke-width="6" opacity="0.5"/>
  <path d="M480 200 Q520 180 565 210 L565 210 Q560 200 550 200" fill="none" stroke="#d4a574" stroke-width="6" opacity="0.5"/>
  <path d="M220 240 L200 480 Q195 520 240 530 L560 530 Q605 520 600 480 L580 240 Z" fill="#c26e7a" opacity="0.35"/>
  <path d="M240 260 L225 470 Q220 500 260 510 L540 510 Q580 500 575 470 L560 260 Z" fill="url(#flora-pattern)" opacity="0.8"/>
  <ellipse cx="340" cy="380" rx="50" ry="45" fill="#7a9e7e" opacity="0.3"/>
  <ellipse cx="460" cy="380" rx="50" ry="45" fill="#7a9e7e" opacity="0.3"/>
  <circle cx="400" cy="420" r="30" fill="#d4a574" opacity="0.4"/>
  <text x="400" y="620" text-anchor="middle" font-family="Georgia, serif" font-size="56" fill="#c26e7a" font-weight="500">Flora</text>
  <text x="400" y="670" text-anchor="middle" font-family="Georgia, serif" font-size="24" fill="#7a9e7e" opacity="0.8">Liberty Cherie</text>
</svg>