<svg xmlns="http://www.w3.org/2000/svg" viewBox="0 0 800 800" width="800" height="800">
  <defs>
    <linearGradient id="bg12" x1="0%" y1="0%" x2="100%" y2="100%">
      <stop offset="0%" style="stop-color:#faf7f5"/>
      <stop offset="100%" style="stop-color:#f5ebe6"/>
    </linearGradient>
    <pattern id="frida-pattern" patternUnits="userSpaceOnUse" width="120" height="120">
      <circle cx="30" cy="30" r="12" fill="#c26e7a" opacity="0.3"/>
      <circle cx="90" cy="30" r="12" fill="#d4a574" opacity="0.3"/>
      <circle cx="60" cy="60" r="15" fill="#7a9e7e" opacity="0.25"/>
      <circle cx="30" cy="90" r="12" fill="#d4a574" opacity="0.3"/>
      <circle cx="90" cy="90" r="12" fill="#c26e7a" opacity="0.3"/>
      <path d="M55 30 Q60 25 65 30" fill="none" stroke="#7a9e7e" stroke-width="2" opacity="0.4"/>
      <path d="M55 90 Q60 85 65 90" fill="none" stroke="#c26e7a" stroke-width="2" opacity="0.4"/>
    </pattern>
  </defs>
  <rect width="800" height="800" fill="url(#bg12)"/>
  <rect width="800" height="800" fill="url(#frida-pattern)"/>
  <path d="M300 180 L280 180 Q260 180 260 200 L260 520 Q260 550 290 550 L510 550 Q540 550 540 520 L540 200 Q540 180 520 180 L500 180" fill="#c26e7a" opacity="0.3"/>
  <path d="M320 200 L300 200 Q280 200 280 220 L280 500 Q280 520 300 520 L500 520 Q520 520 520 500 L520 220 Q520 200 500 200 L480 200" fill="url(#frida-pattern)" opacity="0.9"/>
  <rect x="320" y="160" width="160" height="60" rx="10" fill="#d4a574" opacity="0.4"/>
  <ellipse cx="350" cy="360" rx="50" ry="45" fill="#c26e7a" opacity="0.25"/>
  <ellipse cx="450" cy="360" rx="50" ry="45" fill="#7a9e7e" opacity="0.25"/>
  <ellipse cx="400" cy="420" rx="60" ry="50" fill="#d4a574" opacity="0.2"/>
  <text x="400" y="640" text-anchor="middle" font-family="Georgia, serif" font-size="44" fill="#c26e7a" font-weight="500">Frida Kahlo</text>
  <text x="400" y="690" text-anchor="middle" font-family="Georgia, serif" font-size="24" fill="#7a9e7e" opacity="0.8">Liberty Cherie</text>
</svg>