<svg xmlns="http://www.w3.org/2000/svg" viewBox="0 0 800 800" width="800" height="800">
  <defs>
    <linearGradient id="bg10" x1="0%" y1="0%" x2="100%" y2="100%">
      <stop offset="0%" style="stop-color:#faf7f5"/>
      <stop offset="100%" style="stop-color:#f5ebe6"/>
    </linearGradient>
    <pattern id="iris-pattern" patternUnits="userSpaceOnUse" width="80" height="100">
      <path d="M40 20 Q50 40 40 60 Q30 40 40 20" fill="#7a9e7e" opacity="0.3"/>
      <path d="M40 60 L40 90" stroke="#7a9e7e" stroke-width="2" opacity="0.4"/>
      <ellipse cx="40" cy="35" rx="12" ry="8" fill="#c26e7a" opacity="0.3"/>
      <ellipse cx="40" cy="45" rx="8" ry="5" fill="#d4a574" opacity="0.4"/>
    </pattern>
  </defs>
  <rect width="800" height="800" fill="url(#bg10)"/>
  <rect width="800" height="800" fill="url(#iris-pattern)"/>
  <rect x="200" y="280" width="400" height="250" rx="30" fill="#c26e7a" opacity="0.3"/>
  <rect x="220" y="300" width="360" height="210" rx="20" fill="url(#iris-pattern)" opacity="0.9"/>
  <circle cx="580" cy="400" r="25" fill="#d4a574" opacity="0.5"/>
  <path d="M555 400 L530 400" stroke="#d4a574" stroke-width="4" opacity="0.5"/>
  <ellipse cx="320" cy="400" rx="40" ry="35" fill="#7a9e7e" opacity="0.3"/>
  <ellipse cx="420" cy="410" rx="50" ry="40" fill="#c26e7a" opacity="0.25"/>
  <text x="400" y="620" text-anchor="middle" font-family="Georgia, serif" font-size="56" fill="#c26e7a" font-weight="500">Iris</text>
  <text x="400" y="670" text-anchor="middle" font-family="Georgia, serif" font-size="24" fill="#7a9e7e" opacity="0.8">Liberty Cherie</text>
</svg>