<svg xmlns="http://www.w3.org/2000/svg" viewBox="0 0 800 800" width="800" height="800">
  <defs>
    <linearGradient id="bg11" x1="0%" y1="0%" x2="100%" y2="100%">
      <stop offset="0%" style="stop-color:#faf7f5"/>
      <stop offset="100%" style="stop-color:#f5ebe6"/>
    </linearGradient>
    <pattern id="sakura-pattern" patternUnits="userSpaceOnUse" width="100" height="100">
      <ellipse cx="50" cy="30" rx="8" ry="12" fill="#c26e7a" opacity="0.25"/>
      <ellipse cx="35" cy="45" rx="8" ry="12" fill="#c26e7a" opacity="0.25" transform="rotate(-72 35 45)"/>
      <ellipse cx="40" cy="65" rx="8" ry="12" fill="#c26e7a" opacity="0.25" transform="rotate(-144 40 65)"/>
      <ellipse cx="60" cy="65" rx="8" ry="12" fill="#c26e7a" opacity="0.25" transform="rotate(144 60 65)"/>
      <ellipse cx="65" cy="45" rx="8" ry="12" fill="#c26e7a" opacity="0.25" transform="rotate(72 65 45)"/>
      <circle cx="50" cy="50" r="8" fill="#d4a574" opacity="0.4"/>
    </pattern>
  </defs>
  <rect width="800" height="800" fill="url(#bg11)"/>
  <rect width="800" height="800" fill="url(#sakura-pattern)"/>
  <rect x="200" y="280" width="400" height="250" rx="30" fill="#c26e7a" opacity="0.25"/>
  <rect x="220" y="300" width="360" height="210" rx="20" fill="url(#sakura-pattern)" opacity="0.9"/>
  <circle cx="580" cy="400" r="25" fill="#d4a574" opacity="0.5"/>
  <path d="M555 400 L530 400" stroke="#d4a574" stroke-width="4" opacity="0.5"/>
  <ellipse cx="340" cy="390" rx="45" ry="40" fill="#c26e7a" opacity="0.2"/>
  <ellipse cx="440" cy="400" rx="50" ry="45" fill="#c26e7a" opacity="0.2"/>
  <path d="M300 350 Q320 320 350 340" fill="none" stroke="#7a9e7e" stroke-width="3" opacity="0.4"/>
  <text x="400" y="620" text-anchor="middle" font-family="Georgia, serif" font-size="52" fill="#c26e7a" font-weight="500">Sakura</text>
  <text x="400" y="670" text-anchor="middle" font-family="Georgia, serif" font-size="24" fill="#7a9e7e" opacity="0.8">Liberty Cherie</text>
</svg>