<svg xmlns="http://www.w3.org/2000/svg" viewBox="0 0 1080 1920">
  <defs>
    <!-- Realistic Rose -->
    <g id="story-rose">
      <ellipse cx="0" cy="8" rx="18" ry="14" fill="#c25a75" transform="rotate(-20)"/>
      <ellipse cx="8" cy="5" rx="16" ry="12" fill="#d4728c" transform="rotate(25)"/>
      <ellipse cx="-8" cy="5" rx="16" ry="12" fill="#d4728c" transform="rotate(-25)"/>
      <ellipse cx="0" cy="-5" rx="14" ry="11" fill="#d4728c" transform="rotate(10)"/>
      <ellipse cx="5" cy="2" rx="12" ry="9" fill="#de8199" transform="rotate(15)"/>
      <ellipse cx="-5" cy="2" rx="12" ry="9" fill="#de8199" transform="rotate(-15)"/>
      <ellipse cx="0" cy="-2" rx="10" ry="8" fill="#e899ac"/>
      <ellipse cx="3" cy="-1" rx="7" ry="5" fill="#f0b0bf" transform="rotate(20)"/>
      <ellipse cx="-3" cy="-1" rx="7" ry="5" fill="#f0b0bf" transform="rotate(-20)"/>
      <path d="M-3,-4 Q0,-8 3,-4 Q2,-2 0,-3 Q-2,-2 -3,-4" fill="#eba2b4"/>
      <circle cx="0" cy="-5" r="2" fill="#c25a75"/>
    </g>

    <!-- Realistic Wildflower -->
    <g id="story-wildflower">
      <ellipse cx="0" cy="-12" rx="5" ry="10" fill="#f5e6d3"/>
      <ellipse cx="0" cy="-12" rx="5" ry="10" fill="#f5e6d3" transform="rotate(72)"/>
      <ellipse cx="0" cy="-12" rx="5" ry="10" fill="#f5e6d3" transform="rotate(144)"/>
      <ellipse cx="0" cy="-12" rx="5" ry="10" fill="#f5e6d3" transform="rotate(216)"/>
      <ellipse cx="0" cy="-12" rx="5" ry="10" fill="#f5e6d3" transform="rotate(288)"/>
      <ellipse cx="0" cy="-10" rx="2" ry="5" fill="#ffffff" opacity="0.3"/>
      <ellipse cx="0" cy="-10" rx="2" ry="5" fill="#ffffff" opacity="0.3" transform="rotate(72)"/>
      <ellipse cx="0" cy="-10" rx="2" ry="5" fill="#ffffff" opacity="0.3" transform="rotate(144)"/>
      <ellipse cx="0" cy="-10" rx="2" ry="5" fill="#ffffff" opacity="0.3" transform="rotate(216)"/>
      <ellipse cx="0" cy="-10" rx="2" ry="5" fill="#ffffff" opacity="0.3" transform="rotate(288)"/>
      <circle cx="0" cy="0" r="5" fill="#d4a574"/>
      <circle cx="-1" cy="-1" r="1" fill="#8b5a3c"/>
      <circle cx="1" cy="1" r="1" fill="#8b5a3c"/>
      <circle cx="1" cy="-1" r="0.8" fill="#8b5a3c"/>
    </g>

    <!-- Realistic Leaf -->
    <g id="story-leaf">
      <path d="M0,0 Q-8,-15 0,-30 Q8,-15 0,0" fill="#5a6b4a"/>
      <path d="M0,0 Q-6,-14 0,-28 Q6,-14 0,0" fill="#6a7b5a" opacity="0.6"/>
      <path d="M0,-2 L0,-26" stroke="#4a5d3a" stroke-width="0.8" fill="none"/>
      <path d="M0,-8 L-4,-12" stroke="#4a5d3a" stroke-width="0.5" fill="none"/>
      <path d="M0,-8 L4,-12" stroke="#4a5d3a" stroke-width="0.5" fill="none"/>
      <path d="M0,-15 L-3,-19" stroke="#4a5d3a" stroke-width="0.5" fill="none"/>
      <path d="M0,-15 L3,-19" stroke="#4a5d3a" stroke-width="0.5" fill="none"/>
    </g>

    <!-- Realistic Daisy -->
    <g id="story-daisy">
      <ellipse cx="0" cy="-10" rx="3" ry="8" fill="#f5e6d3"/>
      <ellipse cx="0" cy="-10" rx="3" ry="8" fill="#f5e6d3" transform="rotate(30)"/>
      <ellipse cx="0" cy="-10" rx="3" ry="8" fill="#f5e6d3" transform="rotate(60)"/>
      <ellipse cx="0" cy="-10" rx="3" ry="8" fill="#f5e6d3" transform="rotate(90)"/>
      <ellipse cx="0" cy="-10" rx="3" ry="8" fill="#f5e6d3" transform="rotate(120)"/>
      <ellipse cx="0" cy="-10" rx="3" ry="8" fill="#f5e6d3" transform="rotate(150)"/>
      <ellipse cx="0" cy="-10" rx="3" ry="8" fill="#f5e6d3" transform="rotate(180)"/>
      <ellipse cx="0" cy="-10" rx="3" ry="8" fill="#f5e6d3" transform="rotate(210)"/>
      <ellipse cx="0" cy="-10" rx="3" ry="8" fill="#f5e6d3" transform="rotate(240)"/>
      <ellipse cx="0" cy="-10" rx="3" ry="8" fill="#f5e6d3" transform="rotate(270)"/>
      <ellipse cx="0" cy="-10" rx="3" ry="8" fill="#f5e6d3" transform="rotate(300)"/>
      <ellipse cx="0" cy="-10" rx="3" ry="8" fill="#f5e6d3" transform="rotate(330)"/>
      <circle cx="0" cy="0" r="5" fill="#d4a574"/>
      <circle cx="0" cy="0" r="3" fill="#c49464"/>
    </g>

    <!-- Small Bud -->
    <g id="story-bud">
      <ellipse cx="0" cy="0" rx="5" ry="8" fill="#d4728c"/>
      <ellipse cx="-2" cy="-2" rx="3" ry="6" fill="#de8199"/>
      <path d="M-4,4 Q-6,0 -4,-4 Q-2,-2 -4,4" fill="#5a6b4a"/>
      <path d="M4,4 Q6,0 4,-4 Q2,-2 4,4" fill="#5a6b4a"/>
    </g>

    <!-- Coral Flower -->
    <g id="story-coral">
      <ellipse cx="0" cy="-10" rx="6" ry="9" fill="#c64b4b"/>
      <ellipse cx="0" cy="-10" rx="6" ry="9" fill="#c64b4b" transform="rotate(60)"/>
      <ellipse cx="0" cy="-10" rx="6" ry="9" fill="#c64b4b" transform="rotate(120)"/>
      <ellipse cx="0" cy="-10" rx="6" ry="9" fill="#c64b4b" transform="rotate(180)"/>
      <ellipse cx="0" cy="-10" rx="6" ry="9" fill="#c64b4b" transform="rotate(240)"/>
      <ellipse cx="0" cy="-10" rx="6" ry="9" fill="#c64b4b" transform="rotate(300)"/>
      <ellipse cx="0" cy="-8" rx="3" ry="5" fill="#d65c5c" transform="rotate(30)"/>
      <ellipse cx="0" cy="-8" rx="3" ry="5" fill="#d65c5c" transform="rotate(90)"/>
      <ellipse cx="0" cy="-8" rx="3" ry="5" fill="#d65c5c" transform="rotate(150)"/>
      <ellipse cx="0" cy="-8" rx="3" ry="5" fill="#d65c5c" transform="rotate(210)"/>
      <ellipse cx="0" cy="-8" rx="3" ry="5" fill="#d65c5c" transform="rotate(270)"/>
      <ellipse cx="0" cy="-8" rx="3" ry="5" fill="#d65c5c" transform="rotate(330)"/>
      <circle cx="0" cy="0" r="4" fill="#f5e6d3"/>
      <circle cx="0" cy="0" r="2" fill="#d4a574"/>
    </g>
  </defs>

  <!-- Background -->
  <rect width="1080" height="1920" fill="#f5e6d3"/>

  <!-- Top floral band -->
  <rect x="0" y="0" width="1080" height="300" fill="#1a2744"/>

  <!-- Top band curving vines -->
  <path d="M0,80 Q100,50 200,90 Q300,120 400,70 Q500,40 600,85 Q700,115 800,65 Q900,40 1000,80 Q1050,100 1080,75" stroke="#4a5d3a" stroke-width="3" fill="none"/>
  <path d="M0,180 Q100,150 200,190 Q300,220 400,170 Q500,140 600,185 Q700,215 800,165 Q900,140 1000,180 Q1050,200 1080,175" stroke="#4a5d3a" stroke-width="3" fill="none"/>

  <!-- Top florals row 1 -->
  <use href="#story-rose" transform="translate(50, 75) scale(1.4)"/>
  <use href="#story-leaf" transform="translate(95, 100) rotate(-25) scale(1.0)"/>
  <use href="#story-wildflower" transform="translate(150, 80) scale(1.2)"/>
  <use href="#story-leaf" transform="translate(200, 95) rotate(30) scale(0.9)"/>
  <use href="#story-coral" transform="translate(260, 70) scale(1.3)"/>
  <use href="#story-bud" transform="translate(320, 90) rotate(-10)"/>
  <use href="#story-daisy" transform="translate(380, 75) scale(1.1)"/>
  <use href="#story-rose" transform="translate(450, 85) scale(1.3) rotate(15)"/>
  <use href="#story-leaf" transform="translate(500, 100) rotate(-35) scale(0.95)"/>
  <use href="#story-wildflower" transform="translate(560, 70) scale(1.15)"/>
  <use href="#story-coral" transform="translate(630, 90) scale(1.2)"/>
  <use href="#story-leaf" transform="translate(680, 105) rotate(25) scale(0.9)"/>
  <use href="#story-bud" transform="translate(730, 75) rotate(15)"/>
  <use href="#story-rose" transform="translate(800, 80) scale(1.35) rotate(-10)"/>
  <use href="#story-daisy" transform="translate(870, 95) scale(1.0)"/>
  <use href="#story-leaf" transform="translate(920, 85) rotate(-30) scale(0.95)"/>
  <use href="#story-wildflower" transform="translate(980, 75) scale(1.2)"/>
  <use href="#story-rose" transform="translate(1050, 85) scale(1.25)"/>

  <!-- Top florals row 2 -->
  <use href="#story-coral" transform="translate(80, 175) scale(1.2)"/>
  <use href="#story-leaf" transform="translate(130, 195) rotate(20) scale(0.9)"/>
  <use href="#story-rose" transform="translate(190, 180) scale(1.3) rotate(20)"/>
  <use href="#story-wildflower" transform="translate(260, 190) scale(1.1)"/>
  <use href="#story-bud" transform="translate(320, 175) rotate(-15)"/>
  <use href="#story-leaf" transform="translate(360, 200) rotate(-25) scale(0.85)"/>
  <use href="#story-daisy" transform="translate(420, 185) scale(1.05)"/>
  <use href="#story-coral" transform="translate(490, 175) scale(1.15)"/>
  <use href="#story-rose" transform="translate(560, 190) scale(1.25) rotate(-15)"/>
  <use href="#story-leaf" transform="translate(610, 200) rotate(30) scale(0.9)"/>
  <use href="#story-wildflower" transform="translate(670, 180) scale(1.2)"/>
  <use href="#story-bud" transform="translate(730, 195) rotate(10)"/>
  <use href="#story-daisy" transform="translate(790, 175) scale(1.1)"/>
  <use href="#story-leaf" transform="translate(840, 195) rotate(-20) scale(0.9)"/>
  <use href="#story-rose" transform="translate(900, 185) scale(1.35)"/>
  <use href="#story-coral" transform="translate(970, 180) scale(1.2)"/>
  <use href="#story-wildflower" transform="translate(1040, 190) scale(1.1)"/>

  <!-- Logo area -->
  <rect x="290" y="340" width="500" height="120" rx="10" fill="#8fa5a4"/>
  <rect x="300" y="350" width="480" height="100" rx="8" fill="none" stroke="#ffffff" stroke-width="1.5" opacity="0.5"/>

  <!-- Logo corner florals -->
  <use href="#story-rose" transform="translate(310, 365) scale(0.6)"/>
  <use href="#story-leaf" transform="translate(335, 380) rotate(45) scale(0.5)"/>
  <use href="#story-rose" transform="translate(770, 365) scale(0.6) rotate(15)"/>
  <use href="#story-leaf" transform="translate(745, 380) rotate(-45) scale(0.5)"/>

  <text x="540" y="400" font-family="Georgia, serif" font-size="40" font-weight="400" fill="#ffffff" text-anchor="middle" letter-spacing="4">LIBERTY</text>
  <text x="540" y="435" font-family="Georgia, serif" font-size="26" font-style="italic" fill="#ffffff" text-anchor="middle">chérie</text>

  <!-- Main content area -->
  <rect x="80" y="520" width="920" height="900" rx="20" fill="#ffffff" opacity="0.9"/>
  <rect x="100" y="540" width="880" height="860" rx="15" fill="none" stroke="#8fa5a4" stroke-width="2"/>

  <!-- Content box corner florals -->
  <use href="#story-rose" transform="translate(115, 555) scale(0.7)"/>
  <use href="#story-leaf" transform="translate(145, 575) rotate(40) scale(0.55)"/>
  <use href="#story-wildflower" transform="translate(175, 560) scale(0.65)"/>

  <use href="#story-rose" transform="translate(965, 555) scale(0.7) rotate(15)"/>
  <use href="#story-leaf" transform="translate(935, 575) rotate(-40) scale(0.55)"/>
  <use href="#story-wildflower" transform="translate(905, 560) scale(0.65)"/>

  <use href="#story-rose" transform="translate(115, 1385) scale(0.7) rotate(-10)"/>
  <use href="#story-leaf" transform="translate(145, 1365) rotate(-40) scale(0.55)"/>

  <use href="#story-rose" transform="translate(965, 1385) scale(0.7) rotate(185)"/>
  <use href="#story-leaf" transform="translate(935, 1365) rotate(40) scale(0.55)"/>

  <!-- Content placeholder -->
  <text x="540" y="900" font-family="Georgia, serif" font-size="56" fill="#1a2744" text-anchor="middle">[STORY CONTENT]</text>
  <text x="540" y="970" font-family="Georgia, serif" font-size="32" font-style="italic" fill="#8fa5a4" text-anchor="middle">Add your image or text</text>

  <!-- Bottom floral band -->
  <rect x="0" y="1620" width="1080" height="300" fill="#1a2744"/>

  <!-- Bottom band curving vines -->
  <path d="M0,1700 Q100,1670 200,1710 Q300,1740 400,1690 Q500,1660 600,1705 Q700,1735 800,1685 Q900,1660 1000,1700 Q1050,1720 1080,1695" stroke="#4a5d3a" stroke-width="3" fill="none"/>
  <path d="M0,1800 Q100,1770 200,1810 Q300,1840 400,1790 Q500,1760 600,1805 Q700,1835 800,1785 Q900,1760 1000,1800 Q1050,1820 1080,1795" stroke="#4a5d3a" stroke-width="3" fill="none"/>

  <!-- Bottom florals row 1 -->
  <use href="#story-rose" transform="translate(50, 1695) scale(1.4) rotate(180)"/>
  <use href="#story-leaf" transform="translate(95, 1675) rotate(155) scale(1.0)"/>
  <use href="#story-wildflower" transform="translate(150, 1700) scale(1.2) rotate(180)"/>
  <use href="#story-leaf" transform="translate(200, 1680) rotate(-150) scale(0.9)"/>
  <use href="#story-coral" transform="translate(260, 1710) scale(1.3) rotate(180)"/>
  <use href="#story-bud" transform="translate(320, 1690) rotate(170)"/>
  <use href="#story-daisy" transform="translate(380, 1705) scale(1.1) rotate(180)"/>
  <use href="#story-rose" transform="translate(450, 1695) scale(1.3) rotate(165)"/>
  <use href="#story-leaf" transform="translate(500, 1680) rotate(145) scale(0.95)"/>
  <use href="#story-wildflower" transform="translate(560, 1710) scale(1.15) rotate(180)"/>
  <use href="#story-coral" transform="translate(630, 1690) scale(1.2) rotate(180)"/>
  <use href="#story-leaf" transform="translate(680, 1675) rotate(-155) scale(0.9)"/>
  <use href="#story-bud" transform="translate(730, 1705) rotate(-165)"/>
  <use href="#story-rose" transform="translate(800, 1700) scale(1.35) rotate(190)"/>
  <use href="#story-daisy" transform="translate(870, 1685) scale(1.0) rotate(180)"/>
  <use href="#story-leaf" transform="translate(920, 1695) rotate(150) scale(0.95)"/>
  <use href="#story-wildflower" transform="translate(980, 1705) scale(1.2) rotate(180)"/>
  <use href="#story-rose" transform="translate(1050, 1695) scale(1.25) rotate(180)"/>

  <!-- Bottom florals row 2 -->
  <use href="#story-coral" transform="translate(80, 1795) scale(1.2) rotate(180)"/>
  <use href="#story-leaf" transform="translate(130, 1775) rotate(-160) scale(0.9)"/>
  <use href="#story-rose" transform="translate(190, 1800) scale(1.3) rotate(160)"/>
  <use href="#story-wildflower" transform="translate(260, 1790) scale(1.1) rotate(180)"/>
  <use href="#story-bud" transform="translate(320, 1805) rotate(165)"/>
  <use href="#story-leaf" transform="translate(360, 1780) rotate(155) scale(0.85)"/>
  <use href="#story-daisy" transform="translate(420, 1795) scale(1.05) rotate(180)"/>
  <use href="#story-coral" transform="translate(490, 1805) scale(1.15) rotate(180)"/>
  <use href="#story-rose" transform="translate(560, 1790) scale(1.25) rotate(195)"/>
  <use href="#story-leaf" transform="translate(610, 1780) rotate(-150) scale(0.9)"/>
  <use href="#story-wildflower" transform="translate(670, 1800) scale(1.2) rotate(180)"/>
  <use href="#story-bud" transform="translate(730, 1785) rotate(-170)"/>
  <use href="#story-daisy" transform="translate(790, 1805) scale(1.1) rotate(180)"/>
  <use href="#story-leaf" transform="translate(840, 1785) rotate(160) scale(0.9)"/>
  <use href="#story-rose" transform="translate(900, 1795) scale(1.35) rotate(180)"/>
  <use href="#story-coral" transform="translate(970, 1800) scale(1.2) rotate(180)"/>
  <use href="#story-wildflower" transform="translate(1040, 1790) scale(1.1) rotate(180)"/>

  <!-- CTA button with floral accents -->
  <rect x="340" y="1480" width="400" height="80" rx="40" fill="#d4728c"/>
  <use href="#story-rose" transform="translate(360, 1520) scale(0.5)"/>
  <use href="#story-rose" transform="translate(720, 1520) scale(0.5) rotate(180)"/>
  <text x="540" y="1530" font-family="Georgia, serif" font-size="28" fill="#ffffff" text-anchor="middle">SHOP NOW</text>
</svg>