<svg xmlns="http://www.w3.org/2000/svg" viewBox="0 0 1080 1080">
  <defs>
    <!-- Realistic Rose -->
    <g id="ig-rose">
      <!-- Outer petals -->
      <ellipse cx="0" cy="8" rx="18" ry="14" fill="#c25a75" transform="rotate(-20)"/>
      <ellipse cx="8" cy="5" rx="16" ry="12" fill="#d4728c" transform="rotate(25)"/>
      <ellipse cx="-8" cy="5" rx="16" ry="12" fill="#d4728c" transform="rotate(-25)"/>
      <ellipse cx="0" cy="-5" rx="14" ry="11" fill="#d4728c" transform="rotate(10)"/>
      <!-- Middle petals -->
      <ellipse cx="5" cy="2" rx="12" ry="9" fill="#de8199" transform="rotate(15)"/>
      <ellipse cx="-5" cy="2" rx="12" ry="9" fill="#de8199" transform="rotate(-15)"/>
      <ellipse cx="0" cy="-2" rx="10" ry="8" fill="#e899ac"/>
      <!-- Inner petals -->
      <ellipse cx="3" cy="-1" rx="7" ry="5" fill="#f0b0bf" transform="rotate(20)"/>
      <ellipse cx="-3" cy="-1" rx="7" ry="5" fill="#f0b0bf" transform="rotate(-20)"/>
      <!-- Center spiral -->
      <path d="M-3,-4 Q0,-8 3,-4 Q2,-2 0,-3 Q-2,-2 -3,-4" fill="#eba2b4"/>
      <circle cx="0" cy="-5" r="2" fill="#c25a75"/>
    </g>

    <!-- Realistic Wildflower -->
    <g id="ig-wildflower">
      <!-- Petals -->
      <ellipse cx="0" cy="-12" rx="5" ry="10" fill="#f5e6d3"/>
      <ellipse cx="0" cy="-12" rx="5" ry="10" fill="#f5e6d3" transform="rotate(72)"/>
      <ellipse cx="0" cy="-12" rx="5" ry="10" fill="#f5e6d3" transform="rotate(144)"/>
      <ellipse cx="0" cy="-12" rx="5" ry="10" fill="#f5e6d3" transform="rotate(216)"/>
      <ellipse cx="0" cy="-12" rx="5" ry="10" fill="#f5e6d3" transform="rotate(288)"/>
      <!-- Petal highlights -->
      <ellipse cx="0" cy="-10" rx="2" ry="5" fill="#ffffff" opacity="0.3"/>
      <ellipse cx="0" cy="-10" rx="2" ry="5" fill="#ffffff" opacity="0.3" transform="rotate(72)"/>
      <ellipse cx="0" cy="-10" rx="2" ry="5" fill="#ffffff" opacity="0.3" transform="rotate(144)"/>
      <ellipse cx="0" cy="-10" rx="2" ry="5" fill="#ffffff" opacity="0.3" transform="rotate(216)"/>
      <ellipse cx="0" cy="-10" rx="2" ry="5" fill="#ffffff" opacity="0.3" transform="rotate(288)"/>
      <!-- Center -->
      <circle cx="0" cy="0" r="5" fill="#d4a574"/>
      <circle cx="-1" cy="-1" r="1" fill="#8b5a3c"/>
      <circle cx="1" cy="1" r="1" fill="#8b5a3c"/>
      <circle cx="1" cy="-1" r="0.8" fill="#8b5a3c"/>
      <circle cx="-1" cy="1" r="0.8" fill="#8b5a3c"/>
    </g>

    <!-- Realistic Leaf -->
    <g id="ig-leaf">
      <path d="M0,0 Q-8,-15 0,-30 Q8,-15 0,0" fill="#5a6b4a"/>
      <path d="M0,0 Q-6,-14 0,-28 Q6,-14 0,0" fill="#6a7b5a" opacity="0.6"/>
      <!-- Veins -->
      <path d="M0,-2 L0,-26" stroke="#4a5d3a" stroke-width="0.8" fill="none"/>
      <path d="M0,-8 L-4,-12" stroke="#4a5d3a" stroke-width="0.5" fill="none"/>
      <path d="M0,-8 L4,-12" stroke="#4a5d3a" stroke-width="0.5" fill="none"/>
      <path d="M0,-15 L-3,-19" stroke="#4a5d3a" stroke-width="0.5" fill="none"/>
      <path d="M0,-15 L3,-19" stroke="#4a5d3a" stroke-width="0.5" fill="none"/>
    </g>

    <!-- Realistic Daisy -->
    <g id="ig-daisy">
      <ellipse cx="0" cy="-10" rx="3" ry="8" fill="#f5e6d3"/>
      <ellipse cx="0" cy="-10" rx="3" ry="8" fill="#f5e6d3" transform="rotate(30)"/>
      <ellipse cx="0" cy="-10" rx="3" ry="8" fill="#f5e6d3" transform="rotate(60)"/>
      <ellipse cx="0" cy="-10" rx="3" ry="8" fill="#f5e6d3" transform="rotate(90)"/>
      <ellipse cx="0" cy="-10" rx="3" ry="8" fill="#f5e6d3" transform="rotate(120)"/>
      <ellipse cx="0" cy="-10" rx="3" ry="8" fill="#f5e6d3" transform="rotate(150)"/>
      <ellipse cx="0" cy="-10" rx="3" ry="8" fill="#f5e6d3" transform="rotate(180)"/>
      <ellipse cx="0" cy="-10" rx="3" ry="8" fill="#f5e6d3" transform="rotate(210)"/>
      <ellipse cx="0" cy="-10" rx="3" ry="8" fill="#f5e6d3" transform="rotate(240)"/>
      <ellipse cx="0" cy="-10" rx="3" ry="8" fill="#f5e6d3" transform="rotate(270)"/>
      <ellipse cx="0" cy="-10" rx="3" ry="8" fill="#f5e6d3" transform="rotate(300)"/>
      <ellipse cx="0" cy="-10" rx="3" ry="8" fill="#f5e6d3" transform="rotate(330)"/>
      <circle cx="0" cy="0" r="5" fill="#d4a574"/>
      <circle cx="0" cy="0" r="3" fill="#c49464"/>
    </g>

    <!-- Small Bud -->
    <g id="ig-bud">
      <ellipse cx="0" cy="0" rx="5" ry="8" fill="#d4728c"/>
      <ellipse cx="-2" cy="-2" rx="3" ry="6" fill="#de8199"/>
      <path d="M-4,4 Q-6,0 -4,-4 Q-2,-2 -4,4" fill="#5a6b4a"/>
      <path d="M4,4 Q6,0 4,-4 Q2,-2 4,4" fill="#5a6b4a"/>
    </g>

    <!-- Coral Flower -->
    <g id="ig-coral">
      <ellipse cx="0" cy="-10" rx="6" ry="9" fill="#c64b4b"/>
      <ellipse cx="0" cy="-10" rx="6" ry="9" fill="#c64b4b" transform="rotate(60)"/>
      <ellipse cx="0" cy="-10" rx="6" ry="9" fill="#c64b4b" transform="rotate(120)"/>
      <ellipse cx="0" cy="-10" rx="6" ry="9" fill="#c64b4b" transform="rotate(180)"/>
      <ellipse cx="0" cy="-10" rx="6" ry="9" fill="#c64b4b" transform="rotate(240)"/>
      <ellipse cx="0" cy="-10" rx="6" ry="9" fill="#c64b4b" transform="rotate(300)"/>
      <ellipse cx="0" cy="-8" rx="3" ry="5" fill="#d65c5c" transform="rotate(30)"/>
      <ellipse cx="0" cy="-8" rx="3" ry="5" fill="#d65c5c" transform="rotate(90)"/>
      <ellipse cx="0" cy="-8" rx="3" ry="5" fill="#d65c5c" transform="rotate(150)"/>
      <ellipse cx="0" cy="-8" rx="3" ry="5" fill="#d65c5c" transform="rotate(210)"/>
      <ellipse cx="0" cy="-8" rx="3" ry="5" fill="#d65c5c" transform="rotate(270)"/>
      <ellipse cx="0" cy="-8" rx="3" ry="5" fill="#d65c5c" transform="rotate(330)"/>
      <circle cx="0" cy="0" r="4" fill="#f5e6d3"/>
      <circle cx="0" cy="0" r="2" fill="#d4a574"/>
    </g>
  </defs>

  <!-- Background -->
  <rect width="1080" height="1080" fill="#1a2744"/>

  <!-- Top floral border with curving vine -->
  <path d="M0,50 Q100,30 200,55 Q300,80 400,45 Q500,20 600,50 Q700,75 800,40 Q900,25 1000,55 Q1050,70 1080,50" stroke="#4a5d3a" stroke-width="3" fill="none"/>

  <!-- Top florals -->
  <use href="#ig-rose" transform="translate(60, 45) scale(1.3)"/>
  <use href="#ig-leaf" transform="translate(100, 70) rotate(-30) scale(0.9)"/>
  <use href="#ig-wildflower" transform="translate(150, 50) scale(1.1)"/>
  <use href="#ig-leaf" transform="translate(200, 65) rotate(20) scale(0.8)"/>
  <use href="#ig-bud" transform="translate(240, 55) rotate(-15)"/>
  <use href="#ig-coral" transform="translate(300, 48) scale(1.1)"/>
  <use href="#ig-leaf" transform="translate(350, 70) rotate(-25) scale(0.85)"/>
  <use href="#ig-daisy" transform="translate(400, 42) scale(1.0)"/>
  <use href="#ig-rose" transform="translate(470, 55) scale(1.2) rotate(15)"/>
  <use href="#ig-leaf" transform="translate(510, 68) rotate(30) scale(0.9)"/>
  <use href="#ig-wildflower" transform="translate(560, 45) scale(1.0)"/>
  <use href="#ig-bud" transform="translate(610, 60) rotate(10)"/>
  <use href="#ig-leaf" transform="translate(650, 72) rotate(-20) scale(0.85)"/>
  <use href="#ig-coral" transform="translate(700, 50) scale(1.05)"/>
  <use href="#ig-rose" transform="translate(770, 42) scale(1.25) rotate(-10)"/>
  <use href="#ig-leaf" transform="translate(820, 65) rotate(25) scale(0.9)"/>
  <use href="#ig-daisy" transform="translate(870, 55) scale(0.95)"/>
  <use href="#ig-wildflower" transform="translate(930, 48) scale(1.1)"/>
  <use href="#ig-leaf" transform="translate(980, 70) rotate(-35) scale(0.8)"/>
  <use href="#ig-bud" transform="translate(1030, 52) rotate(20)"/>
  <use href="#ig-rose" transform="translate(1070, 58) scale(1.1)"/>

  <!-- Bottom floral border with curving vine -->
  <path d="M0,1030 Q100,1050 200,1025 Q300,1005 400,1035 Q500,1055 600,1025 Q700,1000 800,1035 Q900,1055 1000,1025 Q1050,1010 1080,1030" stroke="#4a5d3a" stroke-width="3" fill="none"/>

  <!-- Bottom florals -->
  <use href="#ig-rose" transform="translate(50, 1035) scale(1.2) rotate(180)"/>
  <use href="#ig-leaf" transform="translate(100, 1015) rotate(150) scale(0.85)"/>
  <use href="#ig-coral" transform="translate(160, 1028) scale(1.0) rotate(180)"/>
  <use href="#ig-wildflower" transform="translate(230, 1040) scale(1.1) rotate(180)"/>
  <use href="#ig-leaf" transform="translate(280, 1018) rotate(-160) scale(0.9)"/>
  <use href="#ig-bud" transform="translate(330, 1032) rotate(170)"/>
  <use href="#ig-daisy" transform="translate(390, 1038) scale(1.0) rotate(180)"/>
  <use href="#ig-rose" transform="translate(460, 1025) scale(1.3) rotate(175)"/>
  <use href="#ig-leaf" transform="translate(510, 1045) rotate(165) scale(0.85)"/>
  <use href="#ig-wildflower" transform="translate(570, 1032) scale(1.05) rotate(180)"/>
  <use href="#ig-coral" transform="translate(640, 1040) scale(1.1) rotate(180)"/>
  <use href="#ig-leaf" transform="translate(690, 1020) rotate(-155) scale(0.9)"/>
  <use href="#ig-bud" transform="translate(740, 1035) rotate(-175)"/>
  <use href="#ig-rose" transform="translate(800, 1028) scale(1.2) rotate(180)"/>
  <use href="#ig-daisy" transform="translate(870, 1042) scale(0.95) rotate(180)"/>
  <use href="#ig-leaf" transform="translate(920, 1022) rotate(160) scale(0.85)"/>
  <use href="#ig-wildflower" transform="translate(980, 1035) scale(1.0) rotate(180)"/>
  <use href="#ig-rose" transform="translate(1050, 1030) scale(1.15) rotate(185)"/>

  <!-- Central content area -->
  <rect x="100" y="180" width="880" height="720" rx="20" fill="#8fa5a4" opacity="0.95"/>
  <rect x="120" y="200" width="840" height="680" rx="15" fill="none" stroke="#ffffff" stroke-width="2" opacity="0.4"/>

  <!-- Corner floral accents on content box -->
  <use href="#ig-rose" transform="translate(130, 210) scale(0.8)"/>
  <use href="#ig-leaf" transform="translate(160, 230) rotate(45) scale(0.6)"/>

  <use href="#ig-rose" transform="translate(950, 210) scale(0.8) rotate(15)"/>
  <use href="#ig-leaf" transform="translate(920, 230) rotate(-45) scale(0.6)"/>

  <use href="#ig-rose" transform="translate(130, 870) scale(0.8) rotate(-15)"/>
  <use href="#ig-leaf" transform="translate(160, 850) rotate(-45) scale(0.6)"/>

  <use href="#ig-rose" transform="translate(950, 870) scale(0.8) rotate(180)"/>
  <use href="#ig-leaf" transform="translate(920, 850) rotate(45) scale(0.6)"/>

  <!-- Content placeholder text -->
  <text x="540" y="480" font-family="Georgia, serif" font-size="72" fill="#ffffff" text-anchor="middle" letter-spacing="2">[YOUR TEXT HERE]</text>
  <text x="540" y="550" font-family="Georgia, serif" font-size="36" font-style="italic" fill="#1a2744" text-anchor="middle" opacity="0.7">Add your message</text>

  <!-- Logo at bottom -->
  <text x="540" y="780" font-family="Georgia, serif" font-size="48" font-weight="400" fill="#ffffff" text-anchor="middle" letter-spacing="6">LIBERTY</text>
  <text x="540" y="830" font-family="Georgia, serif" font-size="32" font-style="italic" fill="#1a2744" text-anchor="middle">chérie</text>
</svg>