<svg xmlns="http://www.w3.org/2000/svg" viewBox="0 0 400 200">
  <defs>
    <!-- Rose flower -->
    <g id="rose-l">
      <ellipse cx="0" cy="0" rx="6" ry="5" fill="currentColor"/>
      <ellipse cx="-4" cy="-3" rx="4" ry="3.5" fill="currentColor" opacity="0.85"/>
      <ellipse cx="4" cy="-3" rx="4" ry="3.5" fill="currentColor" opacity="0.85"/>
      <ellipse cx="0" cy="-5" rx="3" ry="2.5" fill="currentColor" opacity="0.9"/>
      <circle cx="0" cy="-1" r="2" fill="currentColor" opacity="0.6"/>
    </g>
    <!-- Small 5-petal flower -->
    <g id="flower5-l">
      <ellipse cx="0" cy="-4" rx="2.2" ry="4" fill="currentColor"/>
      <ellipse cx="3.8" cy="-1.2" rx="2.2" ry="4" fill="currentColor" transform="rotate(72)"/>
      <ellipse cx="2.4" cy="3.2" rx="2.2" ry="4" fill="currentColor" transform="rotate(144)"/>
      <ellipse cx="-2.4" cy="3.2" rx="2.2" ry="4" fill="currentColor" transform="rotate(216)"/>
      <ellipse cx="-3.8" cy="-1.2" rx="2.2" ry="4" fill="currentColor" transform="rotate(288)"/>
      <circle cx="0" cy="0" r="1.8" fill="#1a2744" opacity="0.3"/>
    </g>
    <!-- Leaf -->
    <g id="leaf-l">
      <path d="M0,-8 Q5,-4 0,8 Q-5,-4 0,-8" fill="currentColor"/>
      <path d="M0,-6 L0,5" stroke="#3d4a32" stroke-width="0.4" opacity="0.4"/>
    </g>
    <!-- Small bud -->
    <g id="bud-l">
      <ellipse cx="0" cy="0" rx="2.5" ry="4" fill="currentColor"/>
      <path d="M-2.5,2 Q0,-1 2.5,2" fill="#5a6b4a" opacity="0.6"/>
    </g>
    <!-- Tiny daisy -->
    <g id="daisy-l">
      <ellipse cx="0" cy="-3.5" rx="1.8" ry="3.5" fill="currentColor"/>
      <ellipse cx="3.3" cy="-1.1" rx="1.8" ry="3.5" fill="currentColor" transform="rotate(60)"/>
      <ellipse cx="3.3" cy="1.1" rx="1.8" ry="3.5" fill="currentColor" transform="rotate(120)"/>
      <ellipse cx="0" cy="3.5" rx="1.8" ry="3.5" fill="currentColor" transform="rotate(180)"/>
      <ellipse cx="-3.3" cy="1.1" rx="1.8" ry="3.5" fill="currentColor" transform="rotate(240)"/>
      <ellipse cx="-3.3" cy="-1.1" rx="1.8" ry="3.5" fill="currentColor" transform="rotate(300)"/>
      <circle cx="0" cy="0" r="2" fill="#1a2744" opacity="0.2"/>
    </g>
  </defs>

  <!-- Light background version -->
  <rect x="50" y="40" width="300" height="120" rx="8" fill="#f5e6d3"/>

  <!-- Left floral arrangement -->
  <path d="M75,55 Q68,75 72,95 Q78,115 70,140" stroke="#5a6b4a" stroke-width="1.2" fill="none" opacity="0.7"/>
  <path d="M85,60 Q92,80 88,100 Q82,120 90,145" stroke="#5a6b4a" stroke-width="1" fill="none" opacity="0.6"/>

  <g transform="translate(72, 62)">
    <use href="#rose-l" style="color: #d4728c"/>
  </g>
  <g transform="translate(62, 82)">
    <use href="#flower5-l" style="color: #c64b4b" transform="scale(0.65)"/>
  </g>
  <g transform="translate(80, 78) rotate(-25)">
    <use href="#leaf-l" style="color: #5a6b4a" transform="scale(0.7)"/>
  </g>
  <g transform="translate(58, 100)">
    <use href="#daisy-l" style="color: #8fa5a4" transform="scale(0.6)"/>
  </g>
  <g transform="translate(75, 110) rotate(15)">
    <use href="#leaf-l" style="color: #5a6b4a" transform="scale(0.6)"/>
  </g>
  <g transform="translate(68, 125)">
    <use href="#rose-l" style="color: #b36b7a" transform="scale(0.75)"/>
  </g>
  <g transform="translate(88, 135)">
    <use href="#bud-l" style="color: #d4728c" transform="scale(0.7)"/>
  </g>
  <g transform="translate(60, 142) rotate(-10)">
    <use href="#leaf-l" style="color: #5a6b4a" transform="scale(0.5)"/>
  </g>

  <!-- Right floral arrangement -->
  <path d="M325,55 Q332,75 328,95 Q322,115 330,140" stroke="#5a6b4a" stroke-width="1.2" fill="none" opacity="0.7"/>
  <path d="M315,60 Q308,80 312,100 Q318,120 310,145" stroke="#5a6b4a" stroke-width="1" fill="none" opacity="0.6"/>

  <g transform="translate(328, 62)">
    <use href="#rose-l" style="color: #c64b4b"/>
  </g>
  <g transform="translate(338, 82)">
    <use href="#flower5-l" style="color: #d4728c" transform="scale(0.65)"/>
  </g>
  <g transform="translate(320, 78) rotate(25)">
    <use href="#leaf-l" style="color: #5a6b4a" transform="scale(0.7)"/>
  </g>
  <g transform="translate(342, 100)">
    <use href="#daisy-l" style="color: #8fa5a4" transform="scale(0.6)"/>
  </g>
  <g transform="translate(325, 110) rotate(-15)">
    <use href="#leaf-l" style="color: #5a6b4a" transform="scale(0.6)"/>
  </g>
  <g transform="translate(332, 125)">
    <use href="#rose-l" style="color: #d4728c" transform="scale(0.75)"/>
  </g>
  <g transform="translate(312, 135)">
    <use href="#bud-l" style="color: #b36b7a" transform="scale(0.7)"/>
  </g>
  <g transform="translate(340, 142) rotate(10)">
    <use href="#leaf-l" style="color: #5a6b4a" transform="scale(0.5)"/>
  </g>

  <!-- Center label background -->
  <rect x="100" y="65" width="200" height="70" rx="4" fill="#1a2744"/>
  <rect x="105" y="70" width="190" height="60" rx="3" fill="none" stroke="#8fa5a4" stroke-width="1" opacity="0.5"/>

  <!-- Brand name -->
  <text x="200" y="100" font-family="Georgia, serif" font-size="26" font-weight="400" fill="#ffffff" text-anchor="middle" letter-spacing="3">LIBERTY</text>
  <text x="200" y="122" font-family="Georgia, serif" font-size="18" font-style="italic" fill="#8fa5a4" text-anchor="middle" letter-spacing="1">chérie</text>
</svg>
