<svg xmlns="http://www.w3.org/2000/svg" viewBox="0 0 400 200">
  <defs>
    <!-- Realistic Rose -->
    <g id="realistic-rose">
      <!-- Outer petals with gradients and shadows -->
      <ellipse cx="0" cy="2" rx="8" ry="6" fill="#c25a75" transform="rotate(-30)"/>
      <ellipse cx="0" cy="2" rx="8" ry="6" fill="#d4728c" transform="rotate(-30)" opacity="0.8"/>
      <ellipse cx="-2" cy="0" rx="7" ry="5.5" fill="#d4728c" transform="rotate(-60)"/>
      <ellipse cx="2" cy="0" rx="7" ry="5.5" fill="#cf6a84" transform="rotate(20)"/>
      <ellipse cx="-3" cy="-2" rx="6" ry="5" fill="#d97a92" transform="rotate(-45)"/>
      <ellipse cx="3" cy="-2" rx="6" ry="5" fill="#d4728c" transform="rotate(45)"/>
      <!-- Middle petals -->
      <ellipse cx="-1" cy="-3" rx="5" ry="4" fill="#db8299"/>
      <ellipse cx="1" cy="-3" rx="5" ry="4" fill="#e08aa0" transform="rotate(15)"/>
      <ellipse cx="0" cy="-4" rx="4" ry="3.5" fill="#e596aa"/>
      <!-- Inner petals - curled -->
      <path d="M-2,-5 Q0,-7 2,-5 Q1,-4 0,-5 Q-1,-4 -2,-5" fill="#eba2b4"/>
      <ellipse cx="0" cy="-5.5" rx="2.5" ry="2" fill="#f0b0c0"/>
      <!-- Center spiral -->
      <path d="M0,-6 Q1,-6.5 0.5,-7 Q-0.5,-6.5 0,-6" fill="#c25a75" opacity="0.7"/>
      <circle cx="0" cy="-6" r="1" fill="#b54d68"/>
      <!-- Subtle highlights -->
      <ellipse cx="2" cy="-2" rx="1" ry="2" fill="#f5c4d0" opacity="0.4"/>
    </g>

    <!-- Realistic 5-Petal Flower (Wild Rose style) -->
    <g id="realistic-wildflower">
      <!-- Petals with natural curves and veins -->
      <path d="M0,-9 Q-4,-7 -5,-4 Q-4,-1 0,0 Q4,-1 5,-4 Q4,-7 0,-9" fill="#f5e6d3" stroke="#e8d4c0" stroke-width="0.3"/>
      <path d="M0,-9 Q-4,-7 -5,-4 Q-4,-1 0,0 Q4,-1 5,-4 Q4,-7 0,-9" fill="url(#petal-gradient)" transform="rotate(72)"/>
      <path d="M0,-9 Q-4,-7 -5,-4 Q-4,-1 0,0 Q4,-1 5,-4 Q4,-7 0,-9" fill="#f5e6d3" stroke="#e8d4c0" stroke-width="0.3" transform="rotate(144)"/>
      <path d="M0,-9 Q-4,-7 -5,-4 Q-4,-1 0,0 Q4,-1 5,-4 Q4,-7 0,-9" fill="url(#petal-gradient)" transform="rotate(216)"/>
      <path d="M0,-9 Q-4,-7 -5,-4 Q-4,-1 0,0 Q4,-1 5,-4 Q4,-7 0,-9" fill="#f5e6d3" stroke="#e8d4c0" stroke-width="0.3" transform="rotate(288)"/>
      <!-- Petal veins -->
      <line x1="0" y1="-8" x2="0" y2="-2" stroke="#dbc8b8" stroke-width="0.2" opacity="0.5"/>
      <line x1="0" y1="-8" x2="0" y2="-2" stroke="#dbc8b8" stroke-width="0.2" opacity="0.5" transform="rotate(72)"/>
      <line x1="0" y1="-8" x2="0" y2="-2" stroke="#dbc8b8" stroke-width="0.2" opacity="0.5" transform="rotate(144)"/>
      <line x1="0" y1="-8" x2="0" y2="-2" stroke="#dbc8b8" stroke-width="0.2" opacity="0.5" transform="rotate(216)"/>
      <line x1="0" y1="-8" x2="0" y2="-2" stroke="#dbc8b8" stroke-width="0.2" opacity="0.5" transform="rotate(288)"/>
      <!-- Center with stamens -->
      <circle cx="0" cy="0" r="2.5" fill="#f0dc82"/>
      <circle cx="0" cy="0" r="1.8" fill="#e6c84d"/>
      <!-- Stamens -->
      <line x1="0" y1="0" x2="0" y2="-2" stroke="#8b7355" stroke-width="0.4"/>
      <circle cx="0" cy="-2" r="0.4" fill="#c9a227"/>
      <line x1="0" y1="0" x2="1.7" y2="-1" stroke="#8b7355" stroke-width="0.4"/>
      <circle cx="1.7" cy="-1" r="0.4" fill="#c9a227"/>
      <line x1="0" y1="0" x2="-1.7" y2="-1" stroke="#8b7355" stroke-width="0.4"/>
      <circle cx="-1.7" cy="-1" r="0.4" fill="#c9a227"/>
      <line x1="0" y1="0" x2="1" y2="1.5" stroke="#8b7355" stroke-width="0.4"/>
      <circle cx="1" cy="1.5" r="0.4" fill="#c9a227"/>
      <line x1="0" y1="0" x2="-1" y2="1.5" stroke="#8b7355" stroke-width="0.4"/>
      <circle cx="-1" cy="1.5" r="0.4" fill="#c9a227"/>
    </g>

    <!-- Realistic Leaf -->
    <g id="realistic-leaf">
      <path d="M0,-12 Q6,-8 6,-2 Q5,2 0,10 Q-5,2 -6,-2 Q-6,-8 0,-12" fill="#4a5d3a" stroke="#3d4d30" stroke-width="0.4"/>
      <!-- Leaf gradient overlay -->
      <path d="M0,-12 Q6,-8 6,-2 Q5,2 0,10 Q-5,2 -6,-2 Q-6,-8 0,-12" fill="url(#leaf-gradient)" opacity="0.6"/>
      <!-- Central vein -->
      <path d="M0,-10 L0,8" stroke="#3d4d30" stroke-width="0.6" fill="none"/>
      <!-- Side veins -->
      <path d="M0,-7 Q2,-6 4,-4" stroke="#3d4d30" stroke-width="0.3" fill="none" opacity="0.7"/>
      <path d="M0,-7 Q-2,-6 -4,-4" stroke="#3d4d30" stroke-width="0.3" fill="none" opacity="0.7"/>
      <path d="M0,-3 Q2,-2 4,0" stroke="#3d4d30" stroke-width="0.3" fill="none" opacity="0.7"/>
      <path d="M0,-3 Q-2,-2 -4,0" stroke="#3d4d30" stroke-width="0.3" fill="none" opacity="0.7"/>
      <path d="M0,2 Q1.5,3 3,5" stroke="#3d4d30" stroke-width="0.3" fill="none" opacity="0.7"/>
      <path d="M0,2 Q-1.5,3 -3,5" stroke="#3d4d30" stroke-width="0.3" fill="none" opacity="0.7"/>
      <!-- Highlight -->
      <path d="M-1,-8 Q0,-5 -1,-1" stroke="#6b7d5a" stroke-width="0.8" fill="none" opacity="0.4"/>
    </g>

    <!-- Realistic Rosebud -->
    <g id="realistic-bud">
      <!-- Sepals (green outer covering) -->
      <path d="M0,6 Q-3,3 -2,-2 Q0,-4 2,-2 Q3,3 0,6" fill="#4a5d3a" stroke="#3d4d30" stroke-width="0.3"/>
      <path d="M-1,5 Q-4,2 -3,-1 Q-1,-2 0,0" fill="#5a6d4a" opacity="0.8"/>
      <path d="M1,5 Q4,2 3,-1 Q1,-2 0,0" fill="#4a5d3a" opacity="0.9"/>
      <!-- Bud petals peeking through -->
      <ellipse cx="0" cy="-1" rx="2" ry="3" fill="#d4728c"/>
      <path d="M-1,-3 Q0,-5 1,-3" fill="#db8299"/>
      <ellipse cx="0" cy="-2.5" rx="1" ry="1.5" fill="#e596aa"/>
      <!-- Stem -->
      <rect x="-0.6" y="5" width="1.2" height="6" fill="#4a5d3a"/>
      <rect x="-0.4" y="5" width="0.5" height="6" fill="#5a6d4a" opacity="0.5"/>
    </g>

    <!-- Small Daisy -->
    <g id="realistic-daisy">
      <!-- Petals - thin and delicate -->
      <ellipse cx="0" cy="-5" rx="1.2" ry="4" fill="#fff" stroke="#e8e8e8" stroke-width="0.2"/>
      <ellipse cx="0" cy="-5" rx="1.2" ry="4" fill="#fff" stroke="#e8e8e8" stroke-width="0.2" transform="rotate(30)"/>
      <ellipse cx="0" cy="-5" rx="1.2" ry="4" fill="#fff" stroke="#e8e8e8" stroke-width="0.2" transform="rotate(60)"/>
      <ellipse cx="0" cy="-5" rx="1.2" ry="4" fill="#fff" stroke="#e8e8e8" stroke-width="0.2" transform="rotate(90)"/>
      <ellipse cx="0" cy="-5" rx="1.2" ry="4" fill="#fff" stroke="#e8e8e8" stroke-width="0.2" transform="rotate(120)"/>
      <ellipse cx="0" cy="-5" rx="1.2" ry="4" fill="#fff" stroke="#e8e8e8" stroke-width="0.2" transform="rotate(150)"/>
      <ellipse cx="0" cy="-5" rx="1.2" ry="4" fill="#fff" stroke="#e8e8e8" stroke-width="0.2" transform="rotate(180)"/>
      <ellipse cx="0" cy="-5" rx="1.2" ry="4" fill="#fff" stroke="#e8e8e8" stroke-width="0.2" transform="rotate(210)"/>
      <ellipse cx="0" cy="-5" rx="1.2" ry="4" fill="#fff" stroke="#e8e8e8" stroke-width="0.2" transform="rotate(240)"/>
      <ellipse cx="0" cy="-5" rx="1.2" ry="4" fill="#fff" stroke="#e8e8e8" stroke-width="0.2" transform="rotate(270)"/>
      <ellipse cx="0" cy="-5" rx="1.2" ry="4" fill="#fff" stroke="#e8e8e8" stroke-width="0.2" transform="rotate(300)"/>
      <ellipse cx="0" cy="-5" rx="1.2" ry="4" fill="#fff" stroke="#e8e8e8" stroke-width="0.2" transform="rotate(330)"/>
      <!-- Center -->
      <circle cx="0" cy="0" r="2.5" fill="#f4d03f"/>
      <circle cx="0" cy="0" r="2" fill="#e6b800"/>
      <!-- Texture dots -->
      <circle cx="0.5" cy="-0.5" r="0.3" fill="#c9a227"/>
      <circle cx="-0.5" cy="0.5" r="0.3" fill="#c9a227"/>
      <circle cx="0.8" cy="0.8" r="0.25" fill="#c9a227"/>
      <circle cx="-0.8" cy="-0.3" r="0.25" fill="#c9a227"/>
    </g>

    <!-- Gradients -->
    <linearGradient id="leaf-gradient" x1="0%" y1="0%" x2="100%" y2="100%">
      <stop offset="0%" style="stop-color:#6b7d5a"/>
      <stop offset="100%" style="stop-color:#3d4d30"/>
    </linearGradient>
    <linearGradient id="petal-gradient" x1="0%" y1="0%" x2="100%" y2="100%">
      <stop offset="0%" style="stop-color:#f5e6d3"/>
      <stop offset="100%" style="stop-color:#e8d4c0"/>
    </linearGradient>
  </defs>

  <!-- Background shape -->
  <rect x="50" y="40" width="300" height="120" rx="8" fill="#1a2744"/>

  <!-- Left floral arrangement -->
  <!-- Main curving stem -->
  <path d="M55,50 Q50,70 55,90 Q60,110 52,130 Q48,145 55,155" stroke="#4a5d3a" stroke-width="1.5" fill="none"/>
  <path d="M70,48 Q78,65 72,85 Q65,105 75,125 Q82,140 78,155" stroke="#4a5d3a" stroke-width="1.2" fill="none"/>
  <!-- Secondary thin stems -->
  <path d="M60,60 Q55,65 58,72" stroke="#5a6d4a" stroke-width="0.8" fill="none"/>
  <path d="M68,95 Q60,100 62,108" stroke="#5a6d4a" stroke-width="0.8" fill="none"/>

  <!-- Left flowers and leaves -->
  <g transform="translate(68, 58) scale(0.9)">
    <use href="#realistic-rose"/>
  </g>
  <g transform="translate(55, 78) scale(0.7)">
    <use href="#realistic-wildflower"/>
  </g>
  <g transform="translate(78, 72) rotate(-35) scale(0.55)">
    <use href="#realistic-leaf"/>
  </g>
  <g transform="translate(52, 95) scale(0.6)">
    <use href="#realistic-daisy"/>
  </g>
  <g transform="translate(70, 105) rotate(20) scale(0.5)">
    <use href="#realistic-leaf"/>
  </g>
  <g transform="translate(58, 118) scale(0.7)">
    <use href="#realistic-bud"/>
  </g>
  <g transform="translate(75, 135) scale(0.75)">
    <use href="#realistic-rose"/>
  </g>
  <g transform="translate(55, 145) rotate(-15) scale(0.45)">
    <use href="#realistic-leaf"/>
  </g>
  <g transform="translate(88, 148) scale(0.55)">
    <use href="#realistic-wildflower"/>
  </g>

  <!-- Right floral arrangement -->
  <!-- Main curving stem -->
  <path d="M345,50 Q350,70 345,90 Q340,110 348,130 Q352,145 345,155" stroke="#4a5d3a" stroke-width="1.5" fill="none"/>
  <path d="M330,48 Q322,65 328,85 Q335,105 325,125 Q318,140 322,155" stroke="#4a5d3a" stroke-width="1.2" fill="none"/>
  <!-- Secondary thin stems -->
  <path d="M340,60 Q345,65 342,72" stroke="#5a6d4a" stroke-width="0.8" fill="none"/>
  <path d="M332,95 Q340,100 338,108" stroke="#5a6d4a" stroke-width="0.8" fill="none"/>

  <!-- Right flowers and leaves -->
  <g transform="translate(332, 58) scale(0.9)">
    <use href="#realistic-rose"/>
  </g>
  <g transform="translate(345, 78) scale(0.7)">
    <use href="#realistic-wildflower"/>
  </g>
  <g transform="translate(322, 72) rotate(35) scale(0.55)">
    <use href="#realistic-leaf"/>
  </g>
  <g transform="translate(348, 95) scale(0.6)">
    <use href="#realistic-daisy"/>
  </g>
  <g transform="translate(330, 105) rotate(-20) scale(0.5)">
    <use href="#realistic-leaf"/>
  </g>
  <g transform="translate(342, 118) scale(0.7)">
    <use href="#realistic-bud"/>
  </g>
  <g transform="translate(325, 135) scale(0.75)">
    <use href="#realistic-rose"/>
  </g>
  <g transform="translate(345, 145) rotate(15) scale(0.45)">
    <use href="#realistic-leaf"/>
  </g>
  <g transform="translate(312, 148) scale(0.55)">
    <use href="#realistic-wildflower"/>
  </g>

  <!-- Center label background -->
  <rect x="100" y="65" width="200" height="70" rx="4" fill="#8fa5a4"/>
  <rect x="105" y="70" width="190" height="60" rx="3" fill="none" stroke="#ffffff" stroke-width="1" opacity="0.5"/>

  <!-- Brand name -->
  <text x="200" y="100" font-family="Georgia, serif" font-size="26" font-weight="400" fill="#ffffff" text-anchor="middle" letter-spacing="3">LIBERTY</text>
  <text x="200" y="122" font-family="Georgia, serif" font-size="18" font-style="italic" fill="#ffffff" text-anchor="middle" letter-spacing="1">chérie</text>
</svg>
